# xmcd
#
# Track frame offsets:
#	150
#	25289
#	44324
#	59216
#	82276
#	105372
#	121319
#	140702
#	155131
#	176316
#	199482
#	219586
#	236367
#	255049
#	274159
#	290070
#	306830
#
# Disc length: 4391 seconds
#
# Revision: 0
# Processed by: cddbd v1.5.1PL0 Copyright (c) Steve Scherf et al.
# Submitted via: dBpowerAMP V4.0
#
DISCID=03112511
DTITLE=john mayall - blues for the lost days
DYEAR=1900
DGENRE=Blues
TTITLE0=one in a million
TTITLE1=it ain't safe
TTITLE2=sen say shum
TTITLE3=double life feeling
TTITLE4=what passes for love
TTITLE5=voodo music
TTITLE6=long story short
TTITLE7=no big huny
TTITLE8=mail order mystics
TTITLE9=i could cry
TTITLE10=undercover agent for the blues
TTITLE11=anything i can say
TTITLE12=rot at home
TTITLE13=ain't that loving you,baby
TTITLE14=the same old blues
TTITLE15=black cat moon
TTITLE16=high rolling man
EXTD=
EXTT0=
EXTT1=
EXTT2=
EXTT3=
EXTT4=
EXTT5=
EXTT6=
EXTT7=
EXTT8=
EXTT9=
EXTT10=
EXTT11=
EXTT12=
EXTT13=
EXTT14=
EXTT15=
EXTT16=
PLAYORDER=
